<svg width="32" height="32" fill="none" xmlns="http://www.w3.org/2000/svg"><path d="M23.619 18.669h-.19a1.35 1.35 0 0 1-1.334-1.333v-4.38c0-3.465-2.895-6.245-6.4-6.093-3.276.152-5.79 2.97-5.79 6.284v4.227c0 .724-.61 1.295-1.334 1.295h-.19c-.838 0-1.524.723-1.524 1.561v.572c0 .266.267.533.571.533h17.143a.586.586 0 0 0 .572-.572v-.57c0-.839-.686-1.524-1.524-1.524Zm-5.753 4.189h-3.733a.402.402 0 0 0-.38.457c.19 1.066 1.142 1.828 2.247 1.828s2.057-.8 2.247-1.828a.402.402 0 0 0-.38-.457Z" fill="#BDBDBD"/></svg>