<svg width="136" height="36" fill="none" xmlns="http://www.w3.org/2000/svg"><g clip-path="url('#clip0_2607_25595')"><path fill-rule="evenodd" clip-rule="evenodd" d="M8.844 16.894V8.762c0-.957.241-1.896.7-2.724a5.336 5.336 0 0 1 1.912-1.993l6.22-3.753a2.028 2.028 0 0 1 2.088 0l6.506 3.895c.159.096.29.233.383.399a1.126 1.126 0 0 1 0 1.09 1.069 1.069 0 0 1-.383.4L20.55 9.512a5.333 5.333 0 0 0-1.912 1.992 5.62 5.62 0 0 0-.7 2.722v6.877c0 .19-.047.379-.14.544a1.069 1.069 0 0 1-.381.399 1.012 1.012 0 0 1-1.044 0l-7.008-4.213a1.058 1.058 0 0 1-.383-.397 1.115 1.115 0 0 1-.139-.543Z" fill="#414141"/><path fill-rule="evenodd" clip-rule="evenodd" d="m21.082 13.925 5.188 3.124c.159.096.29.233.383.399a1.126 1.126 0 0 1 0 1.09 1.069 1.069 0 0 1-.383.4l-5.188 3.136a1.012 1.012 0 0 1-1.044-.001 1.07 1.07 0 0 1-.382-.399 1.125 1.125 0 0 1-.14-.544v-6.26c0-.192.048-.38.14-.545.091-.165.223-.303.382-.398a1.013 1.013 0 0 1 1.044-.002ZM11.195 29.898l6.755-4.067a1.013 1.013 0 0 1 1.044 0c.158.096.29.234.382.4.091.165.14.353.14.544v8.132c0 .19-.049.379-.14.544a1.069 1.069 0 0 1-.382.399 1.012 1.012 0 0 1-1.044 0l-6.755-4.067a1.064 1.064 0 0 1-.383-.398 1.121 1.121 0 0 1 0-1.089c.092-.165.224-.302.383-.398Z" fill="#414141"/><path fill-rule="evenodd" clip-rule="evenodd" d="m.521 23.476 6.494-3.912a2.034 2.034 0 0 1 2.09 0l6.494 3.912c.158.096.29.233.38.399a1.126 1.126 0 0 1 0 1.087 1.07 1.07 0 0 1-.38.399l-6.5 3.909a2.02 2.02 0 0 1-1.046.293 2.02 2.02 0 0 1-1.045-.293L.521 25.36a1.07 1.07 0 0 1-.38-.398 1.125 1.125 0 0 1 0-1.087c.09-.166.222-.303.38-.399Z" fill="#FFD900"/><path d="M59.72 16.622c-3.698 0-6.821 3.313-6.821 7.235 0 4.04 3.059 7.327 6.82 7.327 3.68 0 6.79-3.356 6.79-7.328 0-3.922-3.11-7.234-6.79-7.234Zm0 11.985c-2.428 0-4.26-2.04-4.26-4.75 0-2.65 1.832-4.658 4.26-4.658 2.427 0 4.228 2.004 4.228 4.657 0 2.71-1.817 4.75-4.229 4.75ZM51.723 10.354H44.1a4.03 4.03 0 0 0-1.601.33 4.17 4.17 0 0 0-1.358.944 4.373 4.373 0 0 0-.907 1.414 4.519 4.519 0 0 0-.318 1.668v15.748a.4.4 0 0 0 .108.272.369.369 0 0 0 .26.112h1.938c.098 0 .192-.04.262-.112.07-.072.109-.17.11-.272v-7.834c0-.047.018-.093.05-.127a.168.168 0 0 1 .121-.052h7.545c.099 0 .194-.04.263-.114a.396.396 0 0 0 .11-.273v-1.693a.395.395 0 0 0-.11-.274.364.364 0 0 0-.263-.114h-7.535a.168.168 0 0 1-.121-.052.183.183 0 0 1-.05-.127v-4.597c0-.578.22-1.131.61-1.54a2.044 2.044 0 0 1 1.477-.637h7.03a.364.364 0 0 0 .26-.114.396.396 0 0 0 .109-.273v-1.895c0-.102-.039-.2-.107-.272a.365.365 0 0 0-.259-.116ZM92.016 28.122a.493.493 0 0 0-.235-.281.39.39 0 0 0-.318.063c-.69.43-1.472.672-2.275.702-.89 0-1.27-.487-1.27-1.63v-7.598c0-.048.018-.093.05-.127a.168.168 0 0 1 .121-.052h3.61a.496.496 0 0 0 .332-.154.538.538 0 0 0 .147-.347v-1.262a.517.517 0 0 0-.14-.354.476.476 0 0 0-.34-.146H88.09a.168.168 0 0 1-.121-.052.183.183 0 0 1-.05-.127v-3.975a.5.5 0 0 0-.125-.349.46.46 0 0 0-.327-.15h-1.69a.473.473 0 0 0-.338.147.515.515 0 0 0-.141.352v14.33c0 2.862.984 4.085 3.294 4.085a7.737 7.737 0 0 0 3.701-.994c.318-.219.343-.398.257-.613l-.533-1.468ZM76.01 16.622a6.38 6.38 0 0 0-3.812 1.411.206.206 0 0 1-.18.07.168.168 0 0 1-.081-.041.18.18 0 0 1-.05-.078v-1.097a.9.9 0 0 0-.05-.33.245.245 0 0 0-.08-.109.23.23 0 0 0-.121-.048c-.172 0-.496.245-1.07.574l-.954.573c-.368.221-.337.397-.337.702v12.107c.001.132.052.259.142.353.09.093.211.146.338.147h1.51c.523 0 .635-.192.635-.5v-8.9a.23.23 0 0 1 0-.08 4.401 4.401 0 0 1 1.606-1.615 4.175 4.175 0 0 1 2.165-.562c1.849 0 2.859 1.368 2.859 3.853v7.287c0 .133.052.26.141.353.09.094.212.147.339.148h1.658a.496.496 0 0 0 .332-.154.538.538 0 0 0 .148-.347v-7.161c-.007-4.472-1.636-6.556-5.137-6.556ZM101.207 16.622c-3.79 0-6.65 3.134-6.65 7.264 0 4.23 2.805 7.288 6.672 7.288 2.268 0 4.044-.888 4.949-1.716.318-.278.248-.437.042-.709v-.016l-.801-1.299a.317.317 0 0 0-.187-.166c-.086 0-.2.034-.369.153a5.34 5.34 0 0 1-3.444 1.239 4.235 4.235 0 0 1-3.053-1.279 4.14 4.14 0 0 1-1.207-2.79.175.175 0 0 1 .048-.128.175.175 0 0 1 .124-.053h9.448a.453.453 0 0 0 .31-.136.49.49 0 0 0 .141-.318c.029-.248.06-.735.06-.974-.003-3.68-2.567-6.36-6.083-6.36Zm3.44 5.814a.162.162 0 0 1-.121.056h-7.052a.166.166 0 0 1-.128-.062.181.181 0 0 1-.04-.14c.238-2.064 1.747-3.399 3.843-3.399 2.253 0 3.495 1.72 3.549 3.415a.169.169 0 0 1-.051.13ZM121.383 27.51l-.912-.766a.454.454 0 0 0-.355-.135.451.451 0 0 0-.334.185l-.318.331c-.635.663-1.436 1.481-3.021 1.481-2.373 0-4.232-2.074-4.232-4.72 0-2.647 1.906-4.687 4.321-4.687 1.214 0 2.341.798 2.942 1.477.273.288.403.378.635.146l1.064-1.02a.52.52 0 0 0 .215-.363.546.546 0 0 0-.113-.41 5.88 5.88 0 0 0-2.139-1.82 5.622 5.622 0 0 0-2.703-.587c-1.834.022-3.584.802-4.868 2.168a7.394 7.394 0 0 0-1.981 5.119c0 4.074 2.996 7.264 6.818 7.264a5.87 5.87 0 0 0 2.953-.743 6.175 6.175 0 0 0 2.238-2.142c.108-.162.184-.404-.21-.778ZM130.869 16.622a6.158 6.158 0 0 0-3.812 1.405l-.06.046a.17.17 0 0 1-.181 0 .173.173 0 0 1-.068-.066.188.188 0 0 1-.025-.093v-8.04a.488.488 0 0 0-.155-.413c-.115-.07-.273 0-.359.063l-.937.56-.906.543a.55.55 0 0 0-.214.24.58.58 0 0 0-.049.323v19.166c0 .132.051.259.141.352.09.094.211.147.338.148h1.627a.44.44 0 0 0 .366-.127.502.502 0 0 0 .145-.373v-8.908a.166.166 0 0 1 .016-.076c.289-.529.69-.982 1.172-1.325a4.288 4.288 0 0 1 2.567-.835c1.843 0 2.898 1.428 2.898 3.916v7.228c.001.132.051.259.141.352.09.094.211.147.338.148h1.659a.496.496 0 0 0 .332-.154.535.535 0 0 0 .147-.346v-7.178c.01-4.35-1.721-6.556-5.121-6.556Z" fill="#414141"/></g><defs><clipPath id="clip0_2607_25595"><path fill="#fff" d="M0 0h136v36H0z"/></clipPath></defs></svg>