<svg width="28" height="28" fill="none" xmlns="http://www.w3.org/2000/svg"><g clip-path="url('#clip0_1897_41541')"><path d="M6.144 11.393A8.256 8.256 0 0 1 14 5.726c1.972 0 3.754.7 5.154 1.846L23.228 3.5C20.746 1.336 17.564 0 14 0A13.963 13.963 0 0 0 1.447 7.758l4.697 3.635Z" fill="#EA4335"/><path d="M18.713 21.016c-1.271.82-2.886 1.257-4.713 1.257a8.256 8.256 0 0 1-7.844-5.627l-4.713 3.579A13.959 13.959 0 0 0 14 28c3.422 0 6.69-1.216 9.14-3.5l-4.425-3.484h-.002Z" fill="#34A853"/><path d="M23.14 24.5c2.56-2.39 4.223-5.946 4.223-10.5 0-.829-.127-1.719-.317-2.546H14v5.41h7.509c-.37 1.819-1.365 3.227-2.794 4.15L23.14 24.5Z" fill="#4A90E2"/><path d="M6.157 16.645A8.307 8.307 0 0 1 5.727 14c0-.912.146-1.788.417-2.607L1.447 7.758A13.923 13.923 0 0 0 0 13.999c0 2.24.52 4.352 1.443 6.225l4.714-3.579Z" fill="#FBBC05"/></g><defs><clipPath id="clip0_1897_41541"><path fill="#fff" d="M0 0h28v28H0z"/></clipPath></defs></svg>