<svg width="24" height="24" fill="none" xmlns="http://www.w3.org/2000/svg"><path d="M12 6.61a5.377 5.377 0 0 0-5.386 5.386A5.377 5.377 0 0 0 12 17.382a5.377 5.377 0 0 0 5.386-5.386A5.377 5.377 0 0 0 12 6.61Zm0 8.887A3.508 3.508 0 0 1 8.5 11.996 3.505 3.505 0 0 1 12 8.494a3.505 3.505 0 0 1 3.502 3.502A3.508 3.508 0 0 1 12 15.497Zm6.863-9.108c0 .699-.563 1.257-1.256 1.257a1.256 1.256 0 1 1 1.256-1.256Zm3.567 1.275c-.08-1.682-.464-3.173-1.697-4.401-1.228-1.228-2.718-1.613-4.401-1.697-1.735-.098-6.933-.098-8.668 0-1.678.08-3.168.464-4.401 1.692C2.03 4.486 1.65 5.977 1.566 7.66c-.098 1.734-.098 6.933 0 8.667.08 1.683.464 3.173 1.697 4.401 1.233 1.229 2.719 1.613 4.401 1.697 1.735.099 6.933.099 8.668 0 1.683-.08 3.173-.464 4.401-1.697 1.228-1.228 1.613-2.718 1.697-4.401.099-1.734.099-6.928 0-8.663Zm-2.24 10.524a3.546 3.546 0 0 1-1.997 1.997c-1.383.548-4.665.422-6.193.422-1.528 0-4.814.122-6.192-.422a3.545 3.545 0 0 1-1.997-1.997c-.548-1.383-.422-4.664-.422-6.192 0-1.528-.121-4.814.422-6.192a3.545 3.545 0 0 1 1.997-1.997c1.383-.549 4.664-.422 6.192-.422 1.528 0 4.814-.122 6.193.422a3.546 3.546 0 0 1 1.996 1.997c.549 1.382.422 4.664.422 6.192 0 1.528.127 4.814-.422 6.192Z" fill="#BDBDBD"/></svg>