<svg width="64" height="65" fill="none" xmlns="http://www.w3.org/2000/svg"><g clip-path="url('#clip0_2737_24574')"><path d="M55 32.5h-5v-14c0-9.941-8.059-18-18-18s-18 8.059-18 18v14H9a3 3 0 0 0-3 3v26a3 3 0 0 0 3 3h46a3 3 0 0 0 3-3v-26a3 3 0 0 0-3-3ZM35 49.668V55.5a3 3 0 0 1-6 0v-5.832c-1.786-1.039-3-2.953-3-5.168a6 6 0 1 1 12 0c0 2.215-1.214 4.129-3 5.168ZM44 32.5H20v-14c0-6.627 5.373-12 12-12s12 5.373 12 12v14Z" fill="#E0E0E0"/></g><defs><clipPath id="clip0_2737_24574"><path fill="#fff" transform="translate(0 .5)" d="M0 0h64v64H0z"/></clipPath></defs></svg>