<svg width="168" height="28" fill="none" xmlns="http://www.w3.org/2000/svg"><g clip-path="url('#clip0_2596_14486')"><path d="M153.889 11.083H163.976a3.88 3.88 0 0 1 1.128-2.732 3.846 3.846 0 0 1 2.721-1.134V3.393c-2.829 0-5.277 1.568-6.602 3.867h-7.334c-2.928 0-5.311 2.38-5.311 5.482a5.316 5.316 0 0 0 5.311 5.307h5.382v-.01h1.08c1.174 0 2.13.945 2.13 2.106v.207c0 1.16-.955 2.106-2.13 2.106h-18.658v3.822h18.657c3.273 0 5.936-2.66 5.936-5.927v-.208c0-3.268-2.663-5.927-5.936-5.927h-6.366v.009h-.092c-.831 0-1.506-.667-1.506-1.66a1.494 1.494 0 0 1 1.503-1.484Z" fill="url('#paint0_linear_2596_14486')"/><path d="M125.617 7.28h-4.881v.037c-5.07.195-9.145 4.37-9.145 9.509 0 5.263 4.265 9.546 9.505 9.546h5.291V22.55h-5.293a5.692 5.692 0 0 1-4.027-1.678 5.743 5.743 0 0 1-1.672-4.044c0-3.155 2.557-5.722 5.699-5.722h4.523c1.123 0 2.035.903 2.035 2.013v.203c0 1.11-.912 2.012-2.035 2.012h-4.881v3.822h4.884c3.22 0 5.84-2.616 5.84-5.834v-.206a5.848 5.848 0 0 0-5.843-5.836Z" fill="url('#paint1_linear_2596_14486')"/><path d="M104.654 2.354h-3.806V7.26H85.836c-2.928 0-5.31 2.381-5.31 5.482a5.316 5.316 0 0 0 5.31 5.308h5.382v-.01h1.55c1.173 0 2.13.945 2.13 2.105v.208c0 1.16-.955 2.105-2.13 2.105h-8.21v3.822h8.21c3.272 0 5.934-2.66 5.934-5.927v-.208c0-3.268-2.662-5.927-5.934-5.927h-6.366v.01h-.566c-.83 0-1.505-.668-1.505-1.66 0-.819.675-1.485 1.505-1.485h15.012v6.792c0 4.677 3.813 8.483 8.5 8.483v-3.822c-2.589 0-4.694-2.09-4.694-4.66v-6.792h4.98V7.26h-4.98V2.354Z" fill="url('#paint2_linear_2596_14486')"/><path d="M54.956 17.797V2.233h-3.805v15.564c0 4.678 3.812 8.483 8.499 8.483v-3.822c-2.588 0-4.694-2.09-4.694-4.66Z" fill="url('#paint3_linear_2596_14486')"/><path d="M145.538 11.193V7.37h-2.702c-4.657 0-8.446 3.828-8.446 8.535v10.4h3.807V15.905c0-2.598 2.082-4.712 4.641-4.712l2.7-.001Z" fill="url('#paint4_linear_2596_14486')"/><path d="M36.353 21.329c-2.402-1.461-3.672-4.136-3.672-7.732 0-4.306 2.174-6.317 3.997-7.245 2.75-1.4 6.392-1.2 8.661.473l2.25-3.084c-3.419-2.517-8.614-2.847-12.631-.8-3.923 1.998-6.083 5.781-6.083 10.654 0 4.934 1.956 8.838 5.506 11 1.876 1.143 4.093 1.71 6.414 1.71 2.442 0 5.002-.629 7.394-1.887l-1.764-3.386c-3.494 1.839-7.352 1.953-10.072.297Z" fill="url('#paint5_linear_2596_14486')"/><path d="M76.504 21.944a2.067 2.067 0 0 0-.274-.413 8.85 8.85 0 0 0 .677-3.381v-5.265H73.1v5.265c0 2.443-1.668 4.43-3.715 4.43-2.048 0-3.716-1.987-3.716-4.43v-5.265h-3.806v5.265c0 4.55 3.374 8.253 7.522 8.253 1.706 0 3.263-.651 4.526-1.705 2.42 1.525 5.323 1.915 7.645 1.26-2.388-.632-4.191-2.23-5.053-4.014Z" fill="url('#paint6_linear_2596_14486')"/><path d="m67.546 6.334-3.196.96 3.196.959-.786 1.463 1.457-.79.955 3.211.956-3.21 1.457.79-.787-1.464 3.197-.96-3.196-.96.786-1.463-1.457.79-.956-3.21-.955 3.21-1.457-.79.786 1.464Z" fill="url('#paint7_linear_2596_14486')"/><path d="M75.157 4.491a2.087 2.087 0 0 0 1.934-1.298 2.112 2.112 0 0 0-.454-2.292 2.091 2.091 0 0 0-2.282-.456 2.097 2.097 0 0 0-1.292 1.944 2.11 2.11 0 0 0 1.293 1.943c.254.105.526.16.8.16Z" fill="url('#paint8_linear_2596_14486')"/><path d="M64.17 5.716a1.25 1.25 0 0 0 1.247-1.252 1.25 1.25 0 0 0-1.246-1.252 1.25 1.25 0 0 0-1.247 1.252 1.25 1.25 0 0 0 1.247 1.252Z" fill="url('#paint9_linear_2596_14486')"/><path d="M71.414 11.115a.772.772 0 0 0 .472.71.763.763 0 0 0 1.044-.56.772.772 0 0 0-.326-.79.763.763 0 0 0-1.19.64Z" fill="url('#paint10_linear_2596_14486')"/><path d="M76.157 7.437a1.306 1.306 0 0 0-1.21.812 1.322 1.322 0 0 0 .283 1.434 1.308 1.308 0 0 0 2.237-.93c0-.35-.138-.684-.383-.931a1.307 1.307 0 0 0-.927-.385Z" fill="url('#paint11_linear_2596_14486')"/><path d="M64.334 9.433a.732.732 0 0 0 .448.675.723.723 0 0 0 .793-.158.731.731 0 0 0-.515-1.247.726.726 0 0 0-.726.73Z" fill="url('#paint12_linear_2596_14486')"/><path d="M19.48 21.09c.265.41.518.795.767 1.183.153.238.294.484.457.714a.48.48 0 0 1 .065.481 1.167 1.167 0 0 1-.09.211c-.777 1.234-1.785 2.202-3.158 2.742a4.921 4.921 0 0 1-2.334.326.432.432 0 0 0-.402.148c-.592.622-1.312 1.002-2.172 1.087-.797.08-1.525-.131-2.177-.585-.25-.174-.47-.394-.695-.605a.265.265 0 0 0-.246-.089c-2.094.299-3.745-.525-5.105-2.058-.238-.268-.436-.57-.646-.862a1.212 1.212 0 0 1-.141-.271.532.532 0 0 1 .055-.531c.362-.54.706-1.092 1.056-1.64.036-.057.068-.116.111-.192-.072-.065-.139-.129-.21-.186a12.397 12.397 0 0 1-2.786-3.252c-.576-.973-1.065-1.987-1.365-3.083-.123-.454-.215-.916-.324-1.374-.215-.906-.159-1.816-.021-2.724.37-2.439 1.41-4.567 3.006-6.42C4.575 2.426 6.34 1.206 8.452.508A10.21 10.21 0 0 1 11.877 0c.528.011 1.058 0 1.585.04 1.457.11 2.825.539 4.112 1.226 2.055 1.096 3.66 2.67 4.864 4.661.599.993 1.084 2.04 1.381 3.164.222.837.406 1.684.413 2.553.006.649.04 1.308-.135 1.942-.262.956-.54 1.908-.977 2.805-.542 1.11-1.166 2.166-1.989 3.093-.453.512-.92 1.01-1.46 1.435-.06.05-.115.103-.192.17Zm-2.064-6.533c.034-.04.069-.076.101-.115a14.702 14.702 0 0 0 1.469-2.162c.223-.394.403-.812.537-1.245.2-.667-.185-1.44-.792-1.675a6.325 6.325 0 0 0-.722-.253 11.785 11.785 0 0 0-2.576-.37c-.174-.005-.275-.061-.356-.225-.37-.734-.81-1.43-1.313-2.078-.245-.32-.505-.631-.851-.845-.482-.297-.984-.3-1.47-.012-.364.217-.634.544-.888.878a12.737 12.737 0 0 0-1.297 2.058c-.079.16-.18.213-.355.227-.535.043-1.069.1-1.6.172a6.662 6.662 0 0 0-1.629.425 1.447 1.447 0 0 0-.814 1.758c.146.439.335.861.564 1.262.417.738.896 1.439 1.432 2.094.077.093.125.18.1.322-.11.64-.228 1.28-.293 1.926-.033.392-.021.786.035 1.175.078.594.577 1.037 1.169 1.124.345.052.682.012 1.019-.042a13.064 13.064 0 0 0 2.559-.701c.213-.08.424-.17.654-.263-.11-.16-.211-.297-.303-.44-.257-.404-.505-.812-.672-1.266a.888.888 0 0 1 .556-1.176c.143-.055.29-.099.44-.133.452-.082.905-.158 1.36-.223.139-.02.225-.065.3-.19.209-.345.429-.682.663-1.008.148-.198.31-.386.483-.563.317-.34.9-.338 1.22-.006.118.123.24.243.345.377.307.387.606.78.925 1.193Zm-3.382.651c-.327.041-.659.067-.984.13-.268.046-.53.121-.783.224-.336.144-.477.477-.377.832.044.174.112.341.201.497.236.386.483.765.742 1.136.085.122.12.224.088.374-.06.285-.102.573-.124.863-.015.213-.002.427.038.637a.6.6 0 0 0 .48.479c.158.038.32.044.48.018.368-.068.732-.157 1.094-.257.228-.063.449-.223.673-.221.231 0 .463.158.698.222.371.1.741.19 1.118.26.255.047.506.023.723-.163.217-.185.271-.42.256-.67a14.424 14.424 0 0 0-.134-1.17c-.018-.128-.011-.226.075-.33.148-.178.285-.365.411-.559.218-.337.43-.678.556-1.066.122-.377-.055-.783-.435-.919a2.98 2.98 0 0 0-.488-.145c-.41-.071-.824-.125-1.257-.186-.067-.122-.139-.267-.226-.405-.229-.372-.453-.748-.782-1.042-.33-.293-.69-.292-1.01.008a3.114 3.114 0 0 0-.43.506c-.212.31-.403.634-.603.95v-.003Z" fill="url('#paint13_linear_2596_14486')"/><path d="M17.415 14.557c-.318-.414-.617-.808-.923-1.195-.106-.133-.228-.255-.346-.377-.32-.332-.902-.334-1.22.006a5.718 5.718 0 0 0-.483.563c-.234.325-.454.663-.662 1.007-.076.126-.163.17-.3.19-.455.066-.909.14-1.36.224-.15.034-.298.078-.44.133a.885.885 0 0 0-.557 1.176c.167.454.417.862.673 1.266.092.143.192.279.302.44-.231.093-.44.182-.654.263-.827.32-1.684.555-2.559.701-.335.054-.672.093-1.019.042-.591-.087-1.09-.53-1.168-1.123a5.147 5.147 0 0 1-.036-1.176c.065-.645.183-1.286.294-1.926.025-.14-.023-.228-.1-.322a14.77 14.77 0 0 1-1.432-2.094c-.23-.4-.419-.823-.565-1.262-.227-.7.146-1.484.815-1.758a6.661 6.661 0 0 1 1.628-.425 28.379 28.379 0 0 1 1.6-.172c.175-.014.278-.067.355-.227.366-.726.8-1.415 1.297-2.058.254-.334.524-.661.889-.878.486-.289.987-.285 1.469.012.346.214.607.525.85.845.505.648.944 1.344 1.314 2.077.08.163.182.22.356.225.87.028 1.733.152 2.576.37.246.07.487.154.722.253.608.237.992 1.01.792 1.674a6.32 6.32 0 0 1-.537 1.246 14.703 14.703 0 0 1-1.47 2.162c-.031.043-.066.08-.1.118Z" fill="#fff"/><path d="M14.034 15.21c.2-.315.39-.638.602-.947.126-.184.27-.353.43-.506.32-.3.682-.299 1.01-.008.326.29.555.67.782 1.041.085.14.159.283.226.405.433.064.846.118 1.257.186.166.035.33.083.488.146.38.135.556.541.435.919-.125.387-.336.729-.556 1.066-.126.194-.263.38-.411.558-.086.104-.093.202-.075.33.056.389.11.78.134 1.17.015.25-.046.49-.256.671-.21.181-.468.21-.723.163-.376-.07-.748-.161-1.118-.26-.237-.064-.466-.222-.699-.223-.223 0-.444.159-.673.222-.36.099-.725.186-1.093.257a1.22 1.22 0 0 1-.48-.018.598.598 0 0 1-.48-.48 2.468 2.468 0 0 1-.038-.636c.022-.29.064-.579.124-.863.031-.15-.003-.252-.088-.375-.259-.372-.506-.75-.742-1.136a1.964 1.964 0 0 1-.201-.497c-.1-.355.04-.687.377-.831.253-.103.516-.178.784-.224.324-.063.657-.089.984-.13Z" fill="#fff"/></g><defs><linearGradient id="paint0_linear_2596_14486" x1="155.594" y1="19.594" x2="151.017" y2="-6.254" gradientUnits="userSpaceOnUse"><stop offset=".1" stop-color="#5BABDF"/><stop offset=".29" stop-color="#52A2D8"/><stop offset=".61" stop-color="#3A8AC7"/><stop offset="1" stop-color="#1363AA"/></linearGradient><linearGradient id="paint1_linear_2596_14486" x1="123.345" y1="25.512" x2="118.782" y2="-.254" gradientUnits="userSpaceOnUse"><stop offset=".1" stop-color="#5BABDF"/><stop offset=".29" stop-color="#52A2D8"/><stop offset=".61" stop-color="#3A8AC7"/><stop offset="1" stop-color="#1363AA"/></linearGradient><linearGradient id="paint2_linear_2596_14486" x1="98.548" y1="29.991" x2="93.985" y2="4.223" gradientUnits="userSpaceOnUse"><stop offset=".1" stop-color="#5BABDF"/><stop offset=".29" stop-color="#52A2D8"/><stop offset=".61" stop-color="#3A8AC7"/><stop offset="1" stop-color="#1363AA"/></linearGradient><linearGradient id="paint3_linear_2596_14486" x1="58.361" y1="37.365" x2="53.797" y2="11.598" gradientUnits="userSpaceOnUse"><stop offset=".1" stop-color="#5BABDF"/><stop offset=".29" stop-color="#52A2D8"/><stop offset=".61" stop-color="#3A8AC7"/><stop offset="1" stop-color="#1363AA"/></linearGradient><linearGradient id="paint4_linear_2596_14486" x1="140.928" y1="22.326" x2="136.351" y2="-3.514" gradientUnits="userSpaceOnUse"><stop offset=".1" stop-color="#5BABDF"/><stop offset=".29" stop-color="#52A2D8"/><stop offset=".61" stop-color="#3A8AC7"/><stop offset="1" stop-color="#1363AA"/></linearGradient><linearGradient id="paint5_linear_2596_14486" x1="43.612" y1="40.071" x2="39.046" y2="14.285" gradientUnits="userSpaceOnUse"><stop offset=".1" stop-color="#5BABDF"/><stop offset=".29" stop-color="#52A2D8"/><stop offset=".61" stop-color="#3A8AC7"/><stop offset="1" stop-color="#1363AA"/></linearGradient><linearGradient id="paint6_linear_2596_14486" x1="73.822" y1="34.486" x2="69.278" y2="8.832" gradientUnits="userSpaceOnUse"><stop offset=".1" stop-color="#5BABDF"/><stop offset=".29" stop-color="#52A2D8"/><stop offset=".61" stop-color="#3A8AC7"/><stop offset="1" stop-color="#1363AA"/></linearGradient><linearGradient id="paint7_linear_2596_14486" x1="69.997" y1="11.991" x2="68.334" y2="2.598" gradientUnits="userSpaceOnUse"><stop offset=".1" stop-color="#2172BA"/><stop offset="1" stop-color="#1363AA"/></linearGradient><linearGradient id="paint8_linear_2596_14486" x1="75.52" y1="4.46" x2="74.787" y2=".318" gradientUnits="userSpaceOnUse"><stop offset=".1" stop-color="#2172BA"/><stop offset="1" stop-color="#1363AA"/></linearGradient><linearGradient id="paint9_linear_2596_14486" x1="64.387" y1="5.697" x2="63.951" y2="3.231" gradientUnits="userSpaceOnUse"><stop offset=".1" stop-color="#2172BA"/><stop offset="1" stop-color="#1363AA"/></linearGradient><linearGradient id="paint10_linear_2596_14486" x1="72.312" y1="11.873" x2="72.044" y2="10.358" gradientUnits="userSpaceOnUse"><stop offset=".1" stop-color="#2172BA"/><stop offset="1" stop-color="#1363AA"/></linearGradient><linearGradient id="paint11_linear_2596_14486" x1="76.385" y1="10.049" x2="75.926" y2="7.457" gradientUnits="userSpaceOnUse"><stop offset=".1" stop-color="#2172BA"/><stop offset="1" stop-color="#1363AA"/></linearGradient><linearGradient id="paint12_linear_2596_14486" x1="65.187" y1="10.152" x2="64.932" y2="8.714" gradientUnits="userSpaceOnUse"><stop offset=".1" stop-color="#2172BA"/><stop offset="1" stop-color="#1363AA"/></linearGradient><linearGradient id="paint13_linear_2596_14486" x1="14.891" y1="27.59" x2="10.027" y2=".126" gradientUnits="userSpaceOnUse"><stop offset=".1" stop-color="#3892D3"/><stop offset=".27" stop-color="#3289CB"/><stop offset=".55" stop-color="#2371B5"/><stop offset=".89" stop-color="#0A4991"/><stop offset="1" stop-color="#013C85"/></linearGradient><clipPath id="clip0_2596_14486"><path fill="#fff" d="M0 0h167.825v28H0z"/></clipPath></defs></svg>