<svg width="20" height="20" fill="none" xmlns="http://www.w3.org/2000/svg"><path d="M16.049 7.698a.647.647 0 0 0-.883.236l-.322.559-.323.559-2.586 4.468-.969 1.676a3.235 3.235 0 0 1-4.414 1.182 3.128 3.128 0 0 1-.468-.336 2.956 2.956 0 0 1-.408-.42 3.872 3.872 0 0 1-.133-.168 3.28 3.28 0 0 1-.217-.352 3.25 3.25 0 0 1-.184-.427 3.206 3.206 0 0 1 .227-2.704l.646-1.117.323-.558 2.261-3.912.323-.559.968-1.676a1.942 1.942 0 0 1 2.649-.709 1.933 1.933 0 0 1 .709 2.645l-.322.558-.381.662-.264.456-.324.558-3.23 5.588a.647.647 0 0 1-.884.236.643.643 0 0 1-.236-.88l1.94-3.352.382-.662 1.233-2.133a.645.645 0 1 0-1.12-.645L8.81 8.604l-.383.662-1.939 3.352a1.936 1.936 0 0 0 .709 2.644 1.94 1.94 0 0 0 2.648-.709l2.256-3.898.655-1.13L14.37 6.73a3.221 3.221 0 0 0-1.184-4.406 3.235 3.235 0 0 0-4.414 1.182l-.646 1.117L5.54 9.09l-.647 1.117-.646 1.117a4.512 4.512 0 0 0 1.656 6.17 4.531 4.531 0 0 0 6.182-1.652l3.554-6.147.323-.558.322-.56a.642.642 0 0 0-.236-.88Z" fill="#212121"/></svg>