<svg width="29" height="28" fill="none" xmlns="http://www.w3.org/2000/svg"><g clip-path="url('#clip0_1872_33993')"><path d="M9.305 25.375c10.567 0 16.346-8.753 16.346-16.345 0-.248 0-.496-.017-.742A11.688 11.688 0 0 0 28.5 5.314c-1.048.465-2.16.77-3.3.904a5.764 5.764 0 0 0 2.526-3.178 11.51 11.51 0 0 1-3.648 1.395 5.75 5.75 0 0 0-9.79 5.24 16.31 16.31 0 0 1-11.84-6.003 5.749 5.749 0 0 0 1.78 7.669 5.694 5.694 0 0 1-2.608-.72v.073a5.747 5.747 0 0 0 4.609 5.632 5.734 5.734 0 0 1-2.594.098 5.752 5.752 0 0 0 5.367 3.99A11.526 11.526 0 0 1 .5 22.795a16.264 16.264 0 0 0 8.805 2.576" fill="#1DA1F2"/></g><defs><clipPath id="clip0_1872_33993"><path fill="#fff" transform="translate(.5)" d="M0 0h28v28H0z"/></clipPath></defs></svg>