<svg width="24" height="20" fill="none" xmlns="http://www.w3.org/2000/svg"><path d="M7.548 19.751c9.056 0 14.01-7.503 14.01-14.01 0-.213 0-.425-.015-.636A10.02 10.02 0 0 0 24 2.555a9.815 9.815 0 0 1-2.828.775A4.94 4.94 0 0 0 23.337.607a9.865 9.865 0 0 1-3.127 1.195 4.929 4.929 0 0 0-8.391 4.491A13.98 13.98 0 0 1 1.67 1.148a4.928 4.928 0 0 0 1.525 6.573A4.88 4.88 0 0 1 .96 7.105v.063a4.926 4.926 0 0 0 3.95 4.826 4.914 4.914 0 0 1-2.223.085 4.93 4.93 0 0 0 4.6 3.42A9.88 9.88 0 0 1 0 17.538a13.941 13.941 0 0 0 7.548 2.208" fill="#212121"/></svg>