<svg width="96" height="96" fill="none" xmlns="http://www.w3.org/2000/svg"><rect width="96" height="96" rx="48" fill="#F1F3F7"/><path d="m66.629 68.98 1.995 3.075c.398.618.764 1.26 1.186 1.859a1.249 1.249 0 0 1 .172 1.255c-.06.194-.138.381-.236.559-2.02 3.214-4.638 5.738-8.21 7.144a12.76 12.76 0 0 1-6.069.855 1.119 1.119 0 0 0-1.044.383 8.817 8.817 0 0 1-5.634 2.849 8.236 8.236 0 0 1-5.657-1.527 15.868 15.868 0 0 1-1.802-1.579.689.689 0 0 0-.641-.23c-5.446.778-9.735-1.371-13.274-5.366a27.918 27.918 0 0 1-1.666-2.236 3.106 3.106 0 0 1-.366-.707 1.39 1.39 0 0 1 .142-1.383c.943-1.398 1.837-2.846 2.748-4.274.091-.148.175-.302.277-.5-.189-.17-.36-.336-.555-.49a32.296 32.296 0 0 1-7.242-8.497c-1.499-2.535-2.776-5.179-3.55-8.035-.322-1.183-.555-2.387-.833-3.58-.555-2.366-.41-4.753-.056-7.103.96-6.356 3.667-11.904 7.817-16.74a30.616 30.616 0 0 1 13.832-9.377 26.46 26.46 0 0 1 8.9-1.328c1.373.028 2.75 0 4.118.106 3.747.3 7.39 1.389 10.693 3.195 5.343 2.856 9.518 6.957 12.646 12.15a31.697 31.697 0 0 1 3.592 8.251c.575 2.18 1.055 4.388 1.072 6.655.014 1.691.103 3.41-.35 5.062-.683 2.49-1.388 4.975-2.54 7.312-1.41 2.89-3.031 5.646-5.171 8.064a29.524 29.524 0 0 1-3.797 3.737c-.153.129-.295.265-.497.442Zm-5.366-17.027c.089-.104.18-.199.261-.3a38.27 38.27 0 0 0 3.82-5.634 16.454 16.454 0 0 0 1.387-3.245c.52-1.739-.48-3.754-2.06-4.372a16.26 16.26 0 0 0-1.876-.66 30.508 30.508 0 0 0-6.7-.964.925.925 0 0 1-.925-.587 32.817 32.817 0 0 0-3.403-5.414c-.636-.838-1.313-1.646-2.22-2.202a3.47 3.47 0 0 0-3.812-.034c-.95.56-1.651 1.417-2.312 2.287a32.925 32.925 0 0 0-3.37 5.366.976.976 0 0 1-.924.593 75.098 75.098 0 0 0-4.164.447 17.357 17.357 0 0 0-4.233 1.118 3.754 3.754 0 0 0-1.936 1.881 3.792 3.792 0 0 0-.182 2.703c.38 1.143.873 2.245 1.468 3.29A38.69 38.69 0 0 0 33.8 51.67a.943.943 0 0 1 .261.838c-.277 1.677-.597 3.337-.763 5.031a13.48 13.48 0 0 0 .091 3.075c.203 1.548 1.502 2.7 3.04 2.932.882.1 1.775.062 2.645-.112a33.9 33.9 0 0 0 6.662-1.828c.555-.21 1.11-.444 1.702-.688-.278-.413-.555-.77-.786-1.145a17.02 17.02 0 0 1-1.748-3.299 2.327 2.327 0 0 1 .626-2.614c.24-.21.521-.366.825-.46a8.285 8.285 0 0 1 1.144-.344 94.216 94.216 0 0 1 3.536-.584.948.948 0 0 0 .78-.498 39.83 39.83 0 0 1 1.721-2.624c.387-.517.807-1.007 1.258-1.468a2.246 2.246 0 0 1 3.156-.028c.316.313.616.641.9.984a157.551 157.551 0 0 1 2.414 3.114Zm-8.79 1.702c-.853.106-1.716.173-2.563.335a9.784 9.784 0 0 0-2.032.587 1.724 1.724 0 0 0-.922.886 1.742 1.742 0 0 0-.063 1.28c.116.455.293.892.527 1.298A56.194 56.194 0 0 0 49.35 61a1.137 1.137 0 0 1 .23.978 17.522 17.522 0 0 0-.325 2.236 6.518 6.518 0 0 0 .1 1.66c.058.311.208.597.431.82.224.224.509.373.818.43.408.099.832.115 1.246.047.958-.179 1.904-.41 2.843-.67.597-.163 1.168-.582 1.751-.58.583.004 1.2.414 1.816.582.96.26 1.943.498 2.909.68a2.131 2.131 0 0 0 1.879-.426 2.006 2.006 0 0 0 .663-1.746c-.058-1.02-.202-2.038-.347-3.053a.988.988 0 0 1 .195-.86c.384-.462.741-.947 1.068-1.451.601-.858 1.086-1.793 1.444-2.779a1.896 1.896 0 0 0-.077-1.432 1.876 1.876 0 0 0-1.056-.963 7.964 7.964 0 0 0-1.268-.38c-1.066-.185-2.14-.324-3.267-.492-.175-.316-.367-.696-.589-1.054-.594-.967-1.177-1.956-2.035-2.714-.857-.757-1.79-.763-2.623.02-.416.398-.788.84-1.11 1.32-.56.815-1.058 1.657-1.574 2.481Z" fill="#DCE2EF"/><path d="M61.162 51.54c-.453-.653-.864-1.307-1.334-1.915a33.339 33.339 0 0 0-1.64-1.946c-1.107-1.231-2.612-1.208-3.702.017-.38.428-.756.866-1.08 1.336-.609.89-1.174 1.812-1.773 2.71a.503.503 0 0 1-.335.192 20.385 20.385 0 0 0-4.733.887c-.725.231-1.32.617-1.627 1.382a2.192 2.192 0 0 0-.08 1.45c.285 1.058.847 1.982 1.415 2.9.363.588.764 1.152 1.173 1.765-.561.222-1.108.445-1.659.655a34.078 34.078 0 0 1-5.381 1.587c-1.327.269-2.654.494-4.032.334-1.156-.134-2.761-1.508-2.938-3.02-.186-1.591-.078-3.158.158-4.723.168-1.11.407-2.208.594-3.317.023-.136-.048-.32-.134-.437-.82-1.12-1.703-2.199-2.471-3.352-1.051-1.575-2.054-3.19-2.676-4.995-.291-.845-.511-1.705-.211-2.62.431-1.32 1.328-2.138 2.61-2.592 1.841-.652 3.752-.96 5.682-1.175.84-.094 1.687-.144 2.531-.196.23-.013.353-.104.454-.304a33.476 33.476 0 0 1 3.845-5.995c.594-.738 1.25-1.421 2.077-1.916a2.715 2.715 0 0 1 1.638-.392c.185.013.372-.013.556-.005 1.08.043 1.837.699 2.537 1.406 1.348 1.363 2.388 2.964 3.382 4.591.47.77.87 1.58 1.323 2.36.068.115.25.227.383.232a36.6 36.6 0 0 1 5.668.673c1.254.245 2.485.568 3.63 1.178 1.27.676 2.124 2.597 1.622 4.172-.425 1.335-1.046 2.564-1.736 3.768-1.051 1.831-2.289 3.531-3.618 5.167l-.116.137-.002.002Z" fill="#fff"/><path d="M49.162 64.087c.15-.977.289-1.956.46-2.928.042-.233.014-.39-.13-.568-.924-1.13-1.732-2.337-2.338-3.67-.073-.16-.132-.327-.19-.493-.425-1.188.208-2.202 1.335-2.563 1.26-.404 2.555-.577 3.868-.647.24-.013.37-.083.481-.3.612-1.176 1.317-2.292 2.214-3.276.528-.58 1.151-.905 1.962-.754.51.095.868.422 1.199.779.898.968 1.586 2.083 2.196 3.248.112.214.237.288.48.3 1.324.068 2.635.226 3.9.65.592.2 1.073.516 1.338 1.135.236.55.148 1.06-.046 1.572-.458 1.206-1.157 2.275-1.916 3.306-.072.097-.13.211-.222.288-.537.46-.512.994-.388 1.649.174.923.256 1.88.24 2.82-.021 1.313-.933 2.035-2.24 1.911-1.528-.145-2.983-.576-4.394-1.155-.384-.157-.702-.155-1.087.004-1.41.581-2.864 1.016-4.393 1.153-.665.059-1.26-.082-1.75-.591-.466-.487-.48-1.09-.517-1.694-.003-.054.008-.11.012-.165l-.077-.01h.003Z" fill="#fff"/><rect x="64" y="64" width="32" height="32" rx="16" fill="#212121"/><path d="m87.4 75.34-2.74-2.74a2 2 0 0 0-2.66-.07l-9 9a2 2 0 0 0-.57 1.21L72 86.91A.999.999 0 0 0 73 88h.09l4.17-.38a2 2 0 0 0 1.21-.57l9-9a1.92 1.92 0 0 0-.07-2.71ZM84 78.68 81.32 76l1.95-2L86 76.73l-2 1.95Z" fill="#fff"/></svg>