<svg width="24" height="24" fill="none" xmlns="http://www.w3.org/2000/svg"><path d="M12 22.5a10.5 10.5 0 1 1 0-21 10.5 10.5 0 0 1 0 21ZM12 3a9 9 0 1 0 0 18 9 9 0 0 0 0-18Z" fill="#000"/><path d="M12 22.5a.75.75 0 0 1-.75-.75V2.25a.75.75 0 1 1 1.5 0v19.5a.75.75 0 0 1-.75.75Z" fill="#000"/><path d="M17.25 12.75a.75.75 0 0 1-.75-.75c0-4.875-2.063-9-4.5-9a.75.75 0 1 1 0-1.5c3.367 0 6 4.612 6 10.5a.75.75 0 0 1-.75.75Z" fill="#000"/><path d="M12 22.5a.75.75 0 1 1 0-1.5c2.438 0 4.5-4.125 4.5-9a.75.75 0 1 1 1.5 0c0 5.887-2.633 10.5-6 10.5ZM6.75 12.75A.75.75 0 0 1 6 12C6 6.112 8.633 1.5 12 1.5A.75.75 0 1 1 12 3c-2.438 0-4.5 4.125-4.5 9a.75.75 0 0 1-.75.75Z" fill="#000"/><path d="M12 22.5c-3.367 0-6-4.613-6-10.5a.75.75 0 1 1 1.5 0c0 4.875 2.063 9 4.5 9a.75.75 0 1 1 0 1.5Z" fill="#000"/><path d="M21.75 12.75H2.25a.75.75 0 1 1 0-1.5h19.5a.75.75 0 1 1 0 1.5ZM20.25 8.25H3.75a.75.75 0 0 1 0-1.5h16.5a.75.75 0 1 1 0 1.5ZM20.25 17.25H3.75a.75.75 0 1 1 0-1.5h16.5a.75.75 0 1 1 0 1.5Z" fill="#000"/></svg>