<svg width="24" height="24" fill="none" xmlns="http://www.w3.org/2000/svg"><g clip-path="url('#clip0_2172_53593')"><path d="M23.522 6.187A3.016 3.016 0 0 0 21.4 4.05c-1.876-.504-9.376-.504-9.376-.504s-7.5 0-9.377.504A3.016 3.016 0 0 0 .526 6.187C.024 8.07.024 12 .024 12s0 3.93.502 5.815a3.016 3.016 0 0 0 2.121 2.135c1.877.505 9.377.505 9.377.505s7.5 0 9.376-.505a3.016 3.016 0 0 0 2.122-2.135c.502-1.885.502-5.815.502-5.815s0-3.93-.502-5.814Z" fill="#212121"/><path d="M9.57 15.567V8.43l6.272 3.568-6.273 3.569Z" fill="#FEFEFE"/></g><defs><clipPath id="clip0_2172_53593"><path fill="#fff" d="M0 0h24v24H0z"/></clipPath></defs></svg>